<svg width="48" height="44" viewBox="0 0 48 44" fill="none" xmlns="http://www.w3.org/2000/svg">
<path d="M10.6537 20.5896C16.2621 20.5896 20.8078 16.0437 20.8078 10.4358C20.8078 4.82757 16.2621 0.281331 10.6537 0.281331C5.04598 0.28133 0.499916 4.82757 0.499915 10.4358C0.499915 16.0437 5.04598 20.5896 10.6537 20.5896ZM37.0348 20.5889C42.6425 20.5889 47.1887 16.0437 47.1887 10.4353C47.1887 4.82758 42.6425 0.281334 37.0348 0.281333C31.4267 0.281333 26.8803 4.82758 26.8803 10.4353C26.8803 16.0437 31.4267 20.5889 37.0348 20.5889ZM13.6906 33.2823C13.6906 27.6744 18.2363 23.1274 23.844 23.1274C29.4523 23.1274 33.9982 27.6744 33.9982 33.2823C33.9982 38.8898 29.4523 43.436 23.844 43.436C18.2363 43.436 13.6906 38.8898 13.6906 33.2823Z" fill="url(#paint0_radial_2002_2)"/>
<defs>
<radialGradient id="paint0_radial_2002_2" cx="0" cy="0" r="1" gradientUnits="userSpaceOnUse" gradientTransform="translate(24 19) rotate(-178.131) scale(26.6074 24.5933)">
<stop stop-color="#C7BAE7"/>
<stop offset="0.681667" stop-color="#6F45DC"/>
<stop offset="0.9991" stop-color="#44288D"/>
</radialGradient>
</defs>
</svg>
