<svg width="201" height="185" viewBox="0 0 201 185" fill="none" xmlns="http://www.w3.org/2000/svg">
<path d="M43.713 87.0595C67.8578 87.0595 87.4276 67.5717 87.4276 43.5313C87.4276 19.4893 67.8578 -5.12054e-06 43.713 -7.23135e-06C19.5713 -9.34188e-06 4.66057e-06 19.4893 2.55876e-06 43.5313C4.57074e-07 67.5717 19.5713 87.0595 43.713 87.0595ZM157.286 87.0565C181.428 87.0565 201 67.5717 201 43.529C201 19.4893 181.428 4.80808e-06 157.286 2.69754e-06C133.143 5.86867e-07 113.57 19.4893 113.57 43.529C113.57 67.5717 133.143 87.0565 157.286 87.0565ZM56.7874 141.472C56.7874 117.431 76.3571 97.9389 100.499 97.9389C124.643 97.939 144.213 117.431 144.213 141.472C144.213 165.511 124.643 185 100.499 185C76.3571 185 56.7873 165.511 56.7874 141.472Z" fill="url(#paint0_radial_58_2287)"/>
<defs>
<radialGradient id="paint0_radial_58_2287" cx="0" cy="0" r="1" gradientUnits="userSpaceOnUse" gradientTransform="translate(101.17 80.2451) rotate(-178.139) scale(114.547 105.43)">
<stop stop-color="#A288E3"/>
<stop offset="0.681667" stop-color="#6F45DC"/>
<stop offset="0.9991" stop-color="#44288D"/>
</radialGradient>
</defs>
</svg>
